# Blender v2.75 (sub 0) OBJ File: 'block.blend'
# www.blender.org
mtllib cube_with_image.mtl
o Cube
v 0.052746 -1.564396 -0.741542
v -1.557775 -0.381797 -0.653886
v -0.435351 1.186122 -1.184730
v 1.175170 0.003523 -1.272385
v 0.435351 -1.186122 1.184730
v -1.175170 -0.003522 1.272385
v -0.052745 1.564396 0.741542
v 1.557775 0.381797 0.653886
v -0.507410 -0.513270 1.211601
vt 0.250043 0.250043
vt 0.500000 0.250043
vt 0.500000 0.500000
vt 0.999913 0.500000
vt 0.749957 0.500000
vt 0.749957 0.250043
vt 0.000087 0.500000
vt 0.000087 0.250043
vt 0.000087 0.000087
vt 0.250043 0.000087
vt 0.250044 0.500000
vt 0.250044 0.749957
vt 0.000087 0.749957
vt 0.999913 0.250043
vn -0.191300 -0.189100 -0.963100
vn 0.191300 0.189100 0.963100
vn -0.561200 -0.784000 0.265400
vn -0.805300 0.591300 0.043800
vn 0.561200 0.784000 -0.265400
vn 0.805300 -0.591300 -0.043800
usemtl Material.010
s off
f 2/1/1 3/2/1 4/3/1
f 5/4/2 8/5/2 7/6/2
f 5/7/3 6/8/3 2/1/3
f 6/8/4 7/9/4 3/10/4
f 7/6/5 8/5/5 4/3/5
f 1/11/6 4/12/6 8/13/6
f 1/11/1 2/1/1 4/3/1
f 6/14/2 5/4/2 7/6/2
f 1/11/3 5/7/3 2/1/3
f 2/1/4 6/8/4 3/10/4
f 3/2/5 7/6/5 4/3/5
f 5/7/6 1/11/6 8/13/6
